<?xml version="1.0" encoding="utf-8"?>
<!-- Generator: Adobe Illustrator 23.0.4, SVG Export Plug-In . SVG Version: 6.00 Build 0)  -->
<svg version="1.1" id="Layer_1" xmlns="http://www.w3.org/2000/svg" xmlns:xlink="http://www.w3.org/1999/xlink" x="0px" y="0px"
	 viewBox="0 0 162 42" style="enable-background:new 0 0 162 42;" xml:space="preserve">
<style type="text/css">
	.st0{fill:#FFFFFF;}
</style>
<g>
	<polygon class="st0" points="157.65,12.24 152.96,24.77 152.89,24.77 148.34,12.24 143.86,12.24 150.88,29.72 148.27,35.64 
		152.46,35.64 162,12.24 	"/>
	<g>
		<path class="st0" d="M133.92,15.48c2.11,0,3.91,1.61,4.35,3.85h-8.7C130,17.09,131.81,15.48,133.92,15.48 M138.03,24.79
			c-0.73,1.28-2.15,1.97-3.84,1.97c-2.28,0-4.28-1.51-4.59-4.35h13.12c0-7.16-4.18-10.51-8.87-10.51c-4.82,0-8.6,3.68-8.6,9.2
			c0,5.52,3.78,9.2,8.9,9.2c2.72,0,5.04-0.81,6.74-2.97L138.03,24.79z"/>
		<path class="st0" d="M0,26.3c1.09,2.48,3.57,4.01,6.5,4.01c2.74,0,5.17-1.34,6.33-3.51c0.51-0.96,0.73-2.19,0.73-4.12V6.69H9.18
			v16.49c0,1.3-0.22,1.86-0.55,2.29c-0.48,0.61-1.24,0.97-2.1,0.97c-1.73,0-2.51-1.35-2.78-2.01L0,26.3z"/>
		<path class="st0" d="M90.73,12.24v2.18h0.07c0.84-1.31,2.61-2.51,4.95-2.51c3.21,0,6.09,2.11,6.09,7.19v10.88h-4.02V19.57
			c0-2.68-1.17-4.02-3.05-4.02c-2.38,0-4.05,1.81-4.05,4.38v10.04h-4.02V12.24H90.73z"/>
		<path class="st0" d="M110.51,12.24v2.18h0.07c0.84-1.31,2.61-2.51,4.95-2.51c3.21,0,6.09,2.11,6.09,7.19v10.88h-4.01V19.57
			c0-2.68-1.17-4.02-3.05-4.02c-2.38,0-4.05,1.81-4.05,4.38v10.04h-4.02V12.24H110.51z"/>
		<path class="st0" d="M74.24,15.48c2.11,0,3.91,1.61,4.35,3.85h-8.7C70.32,17.09,72.13,15.48,74.24,15.48 M78.35,24.79
			c-0.73,1.28-2.15,1.97-3.84,1.97c-2.28,0-4.28-1.51-4.59-4.35h13.12c0-7.16-4.18-10.51-8.87-10.51c-4.82,0-8.6,3.68-8.6,9.2
			c0,5.52,3.78,9.2,8.9,9.2c2.72,0,5.04-0.81,6.74-2.97L78.35,24.79z"/>
		<path class="st0" d="M37.69,23.47c-1.05,1.23-3.11,2.97-6.43,2.97c-2.21,0-4.25-0.83-5.74-2.33c-1.5-1.5-2.33-3.55-2.33-5.77
			c0-4.54,3.46-8.1,7.87-8.1c2,0,3.91,0.76,5.43,2.15l2.81-2.98c-2.18-1.96-5.08-3.04-8.2-3.04c-3.46,0-6.61,1.24-8.86,3.48
			c-2.2,2.2-3.42,5.22-3.42,8.5c0,3.27,1.23,6.29,3.45,8.5c2.27,2.24,5.43,3.48,8.89,3.48c3.86,0,7.31-1.52,9.55-4.18L37.69,23.47z"
			/>
		<path class="st0" d="M54.22,19.38h-3.96v-8.65h3.96c2.48,0,4.36,1.86,4.36,4.32C58.58,17.53,56.71,19.38,54.22,19.38 M60.58,9.13
			c-1.57-1.57-3.71-2.44-6.03-2.44H45.9v23.32h4.37v-6.58h4.25c2.34,0,4.49-0.87,6.06-2.44c1.55-1.55,2.41-3.66,2.41-5.93
			C62.98,12.79,62.13,10.69,60.58,9.13"/>
	</g>
</g>
</svg>
